<svg width="94" height="56" viewBox="0 0 94 56" fill="none" xmlns="http://www.w3.org/2000/svg">
<path d="M26.5814 26.2599C26.5814 27.4081 26.7063 28.3389 26.924 29.0215C27.2005 29.7894 27.5333 30.5361 27.9198 31.2553C28.0755 31.5034 28.1376 31.7516 28.1376 31.969C28.1376 32.279 27.951 32.5894 27.5464 32.8998L25.5856 34.2028C25.3055 34.3891 25.0253 34.482 24.776 34.482C24.465 34.482 24.1536 34.3268 23.8422 34.0476C23.4225 33.5987 23.0473 33.1103 22.7219 32.5894C22.4106 32.0623 22.0992 31.4723 21.757 30.759C19.3289 33.6131 16.2785 35.0403 12.6059 35.0406C9.99154 35.0406 7.90592 34.2957 6.38062 32.8068C4.85569 31.3171 4.07762 29.3315 4.07762 26.8496C4.07762 24.2124 5.01138 22.0716 6.91011 20.4583C8.80847 18.8449 11.3299 18.0382 14.5359 18.0382C15.5941 18.0382 16.6835 18.1311 17.835 18.2863C18.9869 18.4415 20.1696 18.6897 21.4147 18.9689V16.7041C21.4147 14.3458 20.9165 12.7017 19.9515 11.7398C18.9557 10.7779 17.2747 10.3124 14.8781 10.3124C13.7886 10.3124 12.6683 10.4368 11.5165 10.7161C10.3646 10.9953 9.24432 11.3365 8.15487 11.7709C7.65697 11.988 7.28354 12.1121 7.06543 12.1743C6.84732 12.2365 6.692 12.2672 6.56752 12.2672C6.13167 12.2672 5.91393 11.9569 5.91393 11.3054V9.78494C5.91393 9.28863 5.97635 8.91639 6.13167 8.69935C6.28736 8.48193 6.56752 8.26489 7.00337 8.04784C8.09269 7.48906 9.39988 7.02362 10.9249 6.6515C12.4506 6.24816 14.0692 6.06222 15.781 6.06222C19.4852 6.06222 22.1932 6.89966 23.9362 8.57527C25.6481 10.2505 26.5198 12.7947 26.5198 16.2077V26.2599H26.5814ZM13.9443 30.976C14.9717 30.976 16.0299 30.7901 17.1502 30.4175C18.2709 30.0452 19.2671 29.3626 20.1072 28.4318C20.6055 27.8426 20.9789 27.1911 21.1654 26.4462C21.3523 25.7018 21.4768 24.8017 21.4768 23.7469V22.4439C20.5328 22.215 19.5768 22.0389 18.6131 21.9164C17.6427 21.7937 16.6655 21.7315 15.6874 21.7301C13.6017 21.7301 12.0768 22.1335 11.0498 22.9713C10.0228 23.8091 9.52448 24.988 9.52448 26.5392C9.52448 27.9974 9.89791 29.0833 10.676 29.8282C11.4232 30.6038 12.5127 30.976 13.9443 30.976ZM38.9384 34.3268C38.3781 34.3268 38.0046 34.2339 37.7557 34.0165C37.5067 33.8305 37.2886 33.3961 37.1021 32.8068L29.7877 8.82342C29.6005 8.20267 29.5072 7.79932 29.5072 7.58227C29.5072 7.08596 29.7561 6.80633 30.2544 6.80633H33.3046C33.8958 6.80633 34.3008 6.89966 34.5186 7.11671C34.7675 7.30301 34.9544 7.73746 35.141 8.32675L40.3701 28.8663L45.2258 8.32675C45.3814 7.70635 45.5683 7.30301 45.8169 7.11671C46.0662 6.93077 46.5021 6.80669 47.0624 6.80669H49.5523C50.1435 6.80669 50.5485 6.89966 50.7971 7.11671C51.0464 7.30301 51.2642 7.73746 51.3886 8.32675L56.3067 29.1145L61.6912 8.32675C61.8777 7.70635 62.0958 7.30301 62.3136 7.11671C62.5625 6.93077 62.9672 6.80669 63.5275 6.80669H66.422C66.9203 6.80669 67.2005 7.05485 67.2005 7.58227C67.2005 7.73746 67.1692 7.89265 67.138 8.07859C67.1068 8.26452 67.0448 8.51305 66.9203 8.85454L59.4187 32.8375C59.2321 33.4583 59.0143 33.8616 58.7651 34.0476C58.5161 34.2339 58.1115 34.358 57.5827 34.358H54.9059C54.3144 34.358 53.9097 34.265 53.6604 34.0476C53.4115 33.8305 53.1937 33.4272 53.0693 32.8068L48.2444 12.7947L43.4511 32.7753C43.2958 33.3961 43.1089 33.7994 42.86 34.0165C42.611 34.2339 42.1752 34.3268 41.6152 34.3268H38.9384ZM78.935 35.1647C77.3165 35.1647 75.6979 34.9784 74.1418 34.6061C72.5853 34.2339 71.3717 33.8302 70.5624 33.3653C70.0642 33.0857 69.7216 32.7757 69.5975 32.4964C69.4764 32.2225 69.4128 31.9268 69.4106 31.6275V30.0452C69.4106 29.3937 69.6595 29.0833 70.1266 29.0833C70.3172 29.0841 70.5064 29.1156 70.6869 29.1767C70.8734 29.2389 71.1536 29.3626 71.465 29.4867C72.5642 29.969 73.7119 30.333 74.8886 30.5727C76.1079 30.8191 77.3487 30.9438 78.5928 30.9449C80.5536 30.9449 82.0789 30.6038 83.1371 29.9212C84.1954 29.2385 84.7557 28.2459 84.7557 26.9736C84.7557 26.1051 84.4755 25.3914 83.9152 24.8017C83.3549 24.2121 82.2966 23.685 80.7717 23.1883L76.2582 21.7924C73.9861 21.0786 72.3055 20.0238 71.2781 18.6275C70.2511 17.2622 69.7219 15.7422 69.7219 14.1288C69.7219 12.8258 70.0021 11.6777 70.5624 10.6846C71.1224 9.69197 71.8696 8.82342 72.8034 8.14081C73.7371 7.42708 74.7954 6.89966 76.0405 6.52742C77.2853 6.15519 78.5925 6 79.9621 6C80.6469 6 81.3629 6.03111 82.0477 6.12408C82.7637 6.21705 83.4173 6.34112 84.0709 6.4652C84.6933 6.62039 85.2848 6.77558 85.8451 6.96188C86.4052 7.14782 86.841 7.33387 87.1523 7.52005C87.5882 7.76858 87.8992 8.01673 88.0861 8.296C88.2729 8.54416 88.3662 8.8854 88.3662 9.31974V10.7779C88.3662 11.4294 88.1173 11.7709 87.6502 11.7709C87.4013 11.7709 86.9966 11.6465 86.4679 11.3983C84.6931 10.5916 82.701 10.1883 80.4915 10.1883C78.7173 10.1883 77.3165 10.4676 76.3515 11.0572C75.3869 11.6465 74.8886 12.5465 74.8886 13.8184C74.8886 14.6873 75.2 15.4318 75.8224 16.0214C76.4448 16.6111 77.5966 17.2004 79.2464 17.7278L83.6662 19.1241C85.9072 19.8379 87.5258 20.8305 88.4907 22.1024C89.4557 23.3743 89.9228 24.8328 89.9228 26.4462C89.9228 27.7803 89.6422 28.9904 89.1131 30.0452C88.5531 31.1001 87.8059 32.0308 86.841 32.7757C85.876 33.5513 84.7245 34.1098 83.3861 34.5132C81.9853 34.9476 80.5224 35.1647 78.935 35.1647Z" fill="#252F3E"/>
<path d="M84.8177 44.2744C74.5776 51.8139 59.6992 55.8163 46.9067 55.8163C28.9781 55.8163 12.824 49.2076 0.622745 38.2242C-0.342224 37.3557 0.529112 36.1768 1.68061 36.859C14.8781 44.4918 31.157 49.1146 47.9962 49.1146C59.357 49.1146 71.8384 46.7567 83.324 41.9166C85.0358 41.1406 86.4987 43.0336 84.8177 44.2744ZM89.0822 39.4343C87.7751 37.759 80.4291 38.6276 77.0987 39.0309C76.1025 39.1554 75.9469 38.2865 76.8498 37.635C82.7013 33.5393 92.3194 34.7186 93.4397 36.0834C94.5603 37.4798 93.1283 47.0668 87.6502 51.6588C86.8101 52.3725 86.0008 52.0002 86.3742 51.0695C87.619 47.9975 90.3894 41.0788 89.0822 39.4343Z" fill="#FF9900"/>
</svg>
