<svg width="56" height="56" viewBox="0 0 56 56" fill="none" xmlns="http://www.w3.org/2000/svg">
<g clip-path="url(#clip0_766_2)">
<path d="M0 0H56V56H0V0Z" fill="url(#paint0_linear_766_2)"/>
<path d="M24.8259 9.30383C18.6738 9.30383 12.1327 11.1256 12.1327 14.5306V20.5401C12.1551 20.9661 12.267 21.3826 12.4613 21.7623C12.6556 22.142 12.9278 22.4765 13.2602 22.7438C12.9238 23.0156 12.6492 23.3559 12.4548 23.7422C12.2604 24.1285 12.1506 24.5518 12.1327 24.9838V30.957C12.15 31.3892 12.2596 31.8127 12.454 32.1991C12.6485 32.5854 12.9234 32.9257 13.2602 33.197C12.9237 33.4688 12.6491 33.8092 12.4547 34.1956C12.2603 34.5819 12.1505 35.0053 12.1327 35.4375V41.4111C12.1281 41.4629 12.1281 41.515 12.1327 41.5668C12.334 44.845 18.7556 46.6068 24.8259 46.6068C30.8962 46.6068 37.3179 44.845 37.5196 41.5524C37.5269 41.5002 37.5269 41.4471 37.5196 41.3949V35.4213C37.5052 34.9885 37.3969 34.5641 37.2022 34.1773C37.0075 33.7905 36.7311 33.4507 36.3921 33.1813C36.729 32.9099 37.0038 32.5697 37.1983 32.1833C37.3927 31.7969 37.5023 31.3735 37.5196 30.9413V30.2251L32.5846 35.1526C33.4724 34.9048 34.329 34.5565 35.1378 34.1145C35.3742 34.2611 35.576 34.4572 35.7293 34.6893C35.8826 34.9214 35.9838 35.1839 36.0259 35.4589C36.0259 36.8256 33.1297 38.3118 28.8291 38.9169C27.502 39.0961 26.165 39.1905 24.8259 39.1995H24.08C18.0469 39.0578 13.6264 37.1538 13.6264 35.4663C13.6689 35.1915 13.7704 34.9291 13.924 34.6972C14.0776 34.4653 14.2797 34.2695 14.5162 34.1232C16.8608 35.43 20.6601 36.2057 24.8264 36.2057H24.9095L25.3269 34.7125H24.8264C20.72 34.7125 16.9129 33.8979 14.8894 32.6138C14.0831 32.0836 13.6338 31.51 13.6264 31.0095V27.552C15.9114 29.2993 20.4662 30.2106 24.8264 30.2106C25.4166 30.2106 26.0076 30.2106 26.5825 30.1581L27.0069 28.6645C26.2601 28.717 25.5657 28.7389 24.8264 28.7389C18.4201 28.7389 13.6264 26.7754 13.6264 25.0057C13.6687 24.7306 13.7701 24.4679 13.9238 24.2358C14.0774 24.0037 14.2795 23.8077 14.5162 23.6613C16.5769 24.8185 19.7417 25.5425 23.3332 25.707L23.3712 24.2138C19.8393 24.0419 16.6512 23.2806 14.8894 22.1532C14.0906 21.6378 13.6417 21.0551 13.6264 20.5476V17.0988C15.9114 18.8457 20.4662 19.757 24.8264 19.757H24.9913L25.7832 18.2638H24.8264C18.4201 18.2638 13.6264 16.2999 13.6264 14.5306C13.6264 12.761 18.4201 10.797 24.8264 10.797C26.9842 10.7877 29.1353 11.0385 31.2331 11.5438H35.3325C33.0925 10.1775 29.2241 9.30383 24.8259 9.30383ZM30.4259 13.03C30.2884 13.0307 30.1538 13.0693 30.0368 13.1416C29.9198 13.2138 29.8249 13.3169 29.7627 13.4395L25.2827 22.4C25.22 22.5143 25.1884 22.643 25.191 22.7734C25.1935 22.9037 25.2302 23.0312 25.2972 23.1429C25.3643 23.2547 25.4595 23.347 25.5733 23.4106C25.6871 23.4743 25.8156 23.507 25.9459 23.5055H30.1722L25.9766 37.4749C25.9292 37.6358 25.9373 37.8079 25.9995 37.9636C26.0617 38.1194 26.1744 38.2497 26.3196 38.3337C26.4325 38.4011 26.5613 38.4373 26.6927 38.4387C26.8015 38.4411 26.9095 38.4197 27.009 38.3758C27.1086 38.332 27.1973 38.2668 27.2689 38.185L43.6953 21.0118C43.7958 20.9061 43.8631 20.7733 43.889 20.6298C43.9148 20.4863 43.8981 20.3383 43.8409 20.2042C43.7837 20.0701 43.6885 19.9556 43.567 19.875C43.4455 19.7944 43.303 19.7511 43.1572 19.7505H38.969L40.8796 14.0074C40.917 13.8924 40.9259 13.7699 40.9055 13.6507C40.8852 13.5314 40.8362 13.4189 40.7627 13.3228C40.6892 13.2267 40.5935 13.1499 40.4838 13.099C40.374 13.048 40.2536 13.0245 40.1327 13.0305L30.4259 13.03ZM30.8446 14.5306H39.0578L37.1459 20.2645C37.1066 20.3801 37.0963 20.5035 37.1158 20.624C37.1352 20.7446 37.184 20.8584 37.2577 20.9558C37.3314 21.0531 37.4278 21.1308 37.5385 21.1822C37.6492 21.2337 37.7708 21.2571 37.8927 21.2506H41.3722L28.2984 34.9138L31.8902 22.967C31.9228 22.8558 31.929 22.7386 31.9082 22.6247C31.8875 22.5108 31.8404 22.4032 31.7708 22.3107C31.7014 22.2177 31.6111 22.1422 31.5072 22.0903C31.4034 22.0384 31.2888 22.0116 31.1727 22.0119H27.1565L30.8446 14.5306ZM15.8659 19.6144C15.7434 19.6144 15.622 19.6385 15.5088 19.6854C15.3956 19.7323 15.2927 19.8011 15.2061 19.8877C15.1194 19.9744 15.0507 20.0772 15.0038 20.1905C14.9569 20.3037 14.9327 20.425 14.9327 20.5476C14.9327 20.6701 14.9569 20.7915 15.0038 20.9047C15.0507 21.0179 15.1194 21.1208 15.2061 21.2074C15.2927 21.2941 15.3956 21.3628 15.5088 21.4097C15.622 21.4566 15.7434 21.4808 15.8659 21.4808C15.9885 21.4808 16.1099 21.4567 16.2232 21.4099C16.3365 21.363 16.4394 21.2943 16.5261 21.2076C16.6128 21.1209 16.6816 21.018 16.7285 20.9048C16.7754 20.7916 16.7996 20.6702 16.7996 20.5476C16.7996 20.425 16.7754 20.3036 16.7285 20.1904C16.6816 20.0771 16.6128 19.9742 16.5261 19.8876C16.4394 19.8009 16.3365 19.7322 16.2232 19.6853C16.1099 19.6384 15.9885 19.6143 15.8659 19.6144ZM15.8659 30.0676C15.7434 30.0676 15.622 30.0917 15.5088 30.1386C15.3956 30.1855 15.2927 30.2543 15.2061 30.3409C15.1194 30.4276 15.0507 30.5304 15.0038 30.6437C14.9569 30.7569 14.9327 30.8782 14.9327 31.0008C14.9327 31.1234 14.9568 31.2448 15.0037 31.358C15.0505 31.4713 15.1193 31.5742 15.2059 31.6609C15.2926 31.7476 15.3955 31.8164 15.5087 31.8633C15.622 31.9102 15.7433 31.9344 15.8659 31.9344C15.9886 31.9345 16.11 31.9103 16.2233 31.8634C16.3366 31.8165 16.4395 31.7478 16.5262 31.6611C16.6129 31.5744 16.6817 31.4714 16.7286 31.3581C16.7755 31.2448 16.7996 31.1234 16.7996 31.0008C16.7996 30.8782 16.7754 30.7568 16.7285 30.6436C16.6816 30.5303 16.6128 30.4274 16.5261 30.3408C16.4394 30.2541 16.3365 30.1854 16.2232 30.1385C16.1099 30.0916 15.9885 30.0675 15.8659 30.0676ZM13.6259 37.9907C15.911 39.7232 20.4658 40.6332 24.8259 40.6332C29.1861 40.6332 33.7413 39.7232 36.0259 37.9907V41.4251C36.0259 43.1873 31.2327 45.1583 24.8259 45.1583C18.4196 45.1583 13.6259 43.2096 13.6259 41.4251V37.9907ZM15.8659 40.5208C15.7433 40.5208 15.622 40.5449 15.5087 40.5919C15.3955 40.6388 15.2926 40.7076 15.2059 40.7943C15.1193 40.881 15.0505 40.9839 15.0037 41.0971C14.9568 41.2104 14.9327 41.3318 14.9327 41.4544C14.9327 41.7019 15.0311 41.9393 15.2061 42.1143C15.3811 42.2893 15.6184 42.3876 15.8659 42.3876C15.9885 42.3876 16.1099 42.3635 16.2232 42.3167C16.3365 42.2698 16.4394 42.2011 16.5261 42.1144C16.6128 42.0278 16.6816 41.9249 16.7285 41.8116C16.7754 41.6984 16.7996 41.577 16.7996 41.4544C16.7996 41.3318 16.7755 41.2103 16.7286 41.097C16.6817 40.9837 16.6129 40.8808 16.5262 40.7941C16.4395 40.7074 16.3366 40.6386 16.2233 40.5917C16.11 40.5448 15.9886 40.5207 15.8659 40.5208Z" fill="white"/>
</g>
<defs>
<linearGradient id="paint0_linear_766_2" x1="-11.5958" y1="67.5959" x2="67.5959" y2="-11.5958" gradientUnits="userSpaceOnUse">
<stop stop-color="#2E27AD"/>
<stop offset="1" stop-color="#527FFF"/>
</linearGradient>
<clipPath id="clip0_766_2">
<rect width="56" height="56" fill="white"/>
</clipPath>
</defs>
</svg>
