<svg width="193" height="56" viewBox="0 0 193 56" fill="none" xmlns="http://www.w3.org/2000/svg">
<path d="M1.25601 43.6674V22.1485H28.074V20.8898H1.25601V1.25833H29.7695V0H0V44.9258H30.0205V43.6674H1.25601ZM54.201 12.5841L43.0846 27.2449L32.2189 12.5845H30.586L42.3307 28.189L29.4551 44.9254H30.9626L43.0839 29.132L55.2681 44.9254H56.8381L43.9003 28.1883L55.7076 12.5837L54.201 12.5841ZM60.6069 56V35.8655H60.7324C61.4863 38.8018 62.9727 41.1613 65.1918 42.9442C67.4109 44.7267 70.2369 45.6184 73.6702 45.6184C75.8893 45.6184 77.8574 45.1675 79.5741 44.2656C81.2907 43.3638 82.7246 42.1368 83.8762 40.5847C85.0274 39.0325 85.9069 37.2288 86.5141 35.1733C87.121 33.1181 87.4249 30.9576 87.4249 28.6928C87.4249 26.2596 87.1105 24.0152 86.4825 21.96C85.8545 19.9045 84.9437 18.1216 83.7507 16.6117C82.5573 15.1015 81.1128 13.9266 79.4169 13.0883C77.7213 12.2491 75.8057 11.8295 73.6702 11.8295C72.0373 11.8295 70.5196 12.0709 69.117 12.5531C67.7143 13.0358 66.4689 13.717 65.3803 14.5981C64.2852 15.4859 63.3321 16.5362 62.5539 17.7126C61.7585 18.9082 61.1512 20.2191 60.7324 21.6455H60.6069V12.5841H59.3509V56H60.6069ZM73.6702 44.4223C69.7348 44.4223 66.5733 43.0696 64.1868 40.3641C61.8003 37.6586 60.6069 33.7677 60.6069 28.692C60.6069 26.5946 60.9002 24.6021 61.4863 22.7146C62.0725 20.8271 62.9203 19.1699 64.0296 17.7439C65.1394 16.3176 66.5107 15.185 68.1433 14.3462C69.7763 13.5071 71.6188 13.0875 73.6702 13.0875C75.7638 13.0875 77.5958 13.5071 79.1658 14.3462C80.7358 15.185 82.034 16.3281 83.0597 17.7753C84.0854 19.2224 84.8601 20.8796 85.3837 22.7459C85.9069 24.6127 86.1685 26.5946 86.1685 28.692C86.1685 30.5799 85.928 32.4572 85.4462 34.3236C84.9649 36.1903 84.2215 37.8682 83.2165 39.3577C82.212 40.8464 80.9247 42.0628 79.3543 43.0069C77.7839 43.9507 75.8893 44.4223 73.6702 44.4223ZM94.3333 44.9258V26.6157C94.3333 24.854 94.5843 23.1338 95.0872 21.4562C95.5893 19.7783 96.3639 18.2995 97.4107 17.0204C98.4575 15.7409 99.7867 14.7341 101.399 13.9999C103.011 13.2658 104.926 12.9617 107.146 13.0875V11.8292C105.219 11.7876 103.534 11.9968 102.09 12.4583C100.645 12.9198 99.3995 13.549 98.3527 14.3462C97.3059 15.1431 96.4687 16.0762 95.8407 17.1461C95.2132 18.2143 94.7475 19.3699 94.4588 20.5752H94.3333V12.5841H93.0773V44.9261L94.3333 44.9258ZM108.716 29.0066H135.722C135.806 26.7834 135.586 24.6444 135.062 22.5888C134.539 20.5333 133.701 18.7085 132.55 17.1148C131.399 15.5207 129.912 14.2412 128.091 13.2763C126.269 12.3114 124.103 11.8292 121.591 11.8292C119.79 11.8292 118.032 12.2068 116.315 12.9621C114.598 13.717 113.091 14.8179 111.793 16.2651C110.495 17.7122 109.448 19.4845 108.653 21.5824C107.858 23.6795 107.46 26.0704 107.46 28.7551C107.46 31.146 107.732 33.3798 108.276 35.4562C108.82 37.5325 109.658 39.3365 110.788 40.8675C111.919 42.3985 113.374 43.5836 115.153 44.4223C116.932 45.2615 119.078 45.6599 121.591 45.618C125.275 45.618 128.374 44.5794 130.886 42.5035C133.398 40.4268 134.884 37.5011 135.345 33.7258H134.089C133.545 37.2915 132.152 39.9657 129.912 41.7482C127.672 43.5311 124.857 44.4223 121.465 44.4223C119.162 44.4223 117.215 44.0239 115.624 43.2271C114.033 42.4302 112.735 41.3392 111.73 39.9551C110.725 38.5706 109.982 36.9452 109.501 35.0785C109.019 33.2122 108.757 31.1879 108.716 29.0066ZM134.466 27.7483H108.716C108.841 25.4831 109.26 23.4487 109.972 21.6451C110.684 19.841 111.615 18.2995 112.767 17.0204C113.918 15.7409 115.258 14.7658 116.786 14.0943C118.314 13.4232 119.958 13.0875 121.716 13.0875C123.81 13.0875 125.652 13.4757 127.243 14.2518C128.834 15.0279 130.163 16.0872 131.231 17.4294C132.299 18.7715 133.105 20.3342 133.649 22.1168C134.193 23.8997 134.466 25.777 134.466 27.7483ZM161.786 22.1485H163.042C163.042 18.5408 161.995 15.9191 159.902 14.2831C157.808 12.6472 154.961 11.8292 151.36 11.8292C149.35 11.8292 147.655 12.0811 146.273 12.5845C144.891 13.0875 143.761 13.7378 142.881 14.5347C142.002 15.3315 141.374 16.2126 140.997 17.1775C140.62 18.1424 140.432 19.0653 140.432 19.946C140.432 21.7078 140.746 23.113 141.374 24.1617C142.002 25.2105 142.986 26.0285 144.326 26.6157C145.247 27.0349 146.294 27.4126 147.466 27.7487C148.639 28.084 149.999 28.4405 151.549 28.8178C152.93 29.1539 154.291 29.4893 155.631 29.8246C156.971 30.1604 158.154 30.6113 159.179 31.1774C160.205 31.7438 161.043 32.4674 161.692 33.3485C162.341 34.2292 162.665 35.3829 162.665 36.8089C162.665 38.1934 162.341 39.3679 161.692 40.3324C161.048 41.2923 160.201 42.098 159.211 42.6923C158.206 43.3003 157.086 43.7407 155.851 44.0133C154.616 44.286 153.412 44.4223 152.24 44.4223C148.429 44.4223 145.509 43.573 143.478 41.8743C141.448 40.1753 140.432 37.5011 140.432 33.8515H139.176C139.176 37.9207 140.275 40.8989 142.473 42.7867C144.672 44.6742 147.927 45.618 152.24 45.618C153.621 45.618 155.013 45.4605 156.416 45.1459C157.819 44.8313 159.075 44.3177 160.184 43.6044C161.284 42.9011 162.208 41.954 162.885 40.8362C163.576 39.7032 163.921 38.3191 163.921 36.6831C163.921 35.131 163.618 33.8727 163.011 32.9078C162.403 31.9432 161.608 31.146 160.624 30.5169C159.64 29.8877 158.531 29.3949 157.295 29.0383C156.053 28.6797 154.807 28.3335 153.558 27.9998C152.021 27.5957 150.482 27.1973 148.942 26.8045C147.623 26.4688 146.399 26.0704 145.268 25.6089C144.18 25.1474 143.311 24.4869 142.662 23.627C142.013 22.7671 141.688 21.5401 141.688 19.946C141.688 19.6526 141.772 19.128 141.939 18.3731C142.107 17.6178 142.505 16.8523 143.133 16.0762C143.761 15.3005 144.724 14.6083 146.022 13.9999C147.32 13.3919 149.099 13.0875 151.36 13.0875C152.91 13.0875 154.322 13.2556 155.599 13.5909C156.877 13.9266 157.976 14.4614 158.897 15.1955C159.818 15.9297 160.53 16.8629 161.032 17.9955C161.535 19.1284 161.786 20.5125 161.786 22.1485ZM190.865 22.1485H192.121C192.121 18.5408 191.074 15.9191 188.981 14.2831C186.887 12.6472 184.04 11.8292 180.439 11.8292C178.429 11.8292 176.733 12.0811 175.352 12.5845C173.97 13.0875 172.839 13.7378 171.96 14.5347C171.081 15.3315 170.453 16.2126 170.076 17.1775C169.699 18.1424 169.511 19.0653 169.511 19.946C169.511 21.7078 169.825 23.113 170.453 24.1617C171.081 25.2105 172.065 26.0285 173.404 26.6157C174.326 27.0349 175.373 27.4126 176.545 27.7487C177.718 28.084 179.078 28.4405 180.628 28.8178C182.009 29.1539 183.37 29.4893 184.71 29.8246C186.05 30.1604 187.232 30.6113 188.258 31.1774C189.284 31.7438 190.122 32.4674 190.77 33.3485C191.419 34.2292 191.744 35.3829 191.744 36.8089C191.744 38.1934 191.419 39.3679 190.77 40.3324C190.127 41.2922 189.28 42.098 188.29 42.6923C187.285 43.3003 186.165 43.7407 184.929 44.0133C183.695 44.286 182.491 44.4223 181.318 44.4223C177.508 44.4223 174.588 43.573 172.557 41.8743C170.526 40.1753 169.511 37.5011 169.511 33.8515H168.255C168.255 37.9207 169.354 40.8989 171.552 42.7867C173.75 44.6742 177.006 45.618 181.318 45.618C182.7 45.618 184.092 45.4605 185.495 45.1459C186.897 44.8313 188.154 44.3177 189.263 43.6044C190.363 42.9011 191.287 41.954 191.964 40.8362C192.655 39.7032 193 38.3191 193 36.6831C193 35.131 192.697 33.8727 192.089 32.9078C191.482 31.9432 190.687 31.146 189.703 30.5169C188.719 29.8877 187.609 29.3949 186.374 29.0383C185.132 28.6797 183.886 28.3335 182.637 27.9998C181.1 27.5957 179.561 27.1973 178.021 26.8045C176.702 26.4688 175.477 26.0704 174.347 25.6089C173.258 25.1474 172.389 24.4869 171.741 23.627C171.091 22.7671 170.767 21.5401 170.767 19.946C170.767 19.6526 170.851 19.128 171.018 18.3731C171.186 17.6178 171.584 16.8523 172.211 16.0762C172.839 15.3005 173.803 14.6083 175.1 13.9999C176.399 13.3919 178.178 13.0875 180.439 13.0875C181.988 13.0875 183.401 13.2556 184.678 13.5909C185.956 13.9266 187.054 14.4614 187.976 15.1955C188.897 15.9297 189.609 16.8629 190.111 17.9955C190.614 19.1284 190.865 20.5125 190.865 22.1485H190.865Z" fill="#666666"/>
</svg>
