<svg width="50" height="56" viewBox="0 0 50 56" fill="none" xmlns="http://www.w3.org/2000/svg">
<path d="M25 55.9998C24.2236 55.9998 23.499 55.794 22.8262 55.4339L15.942 51.3696C14.9068 50.8037 15.4244 50.5979 15.735 50.495C17.1324 50.032 17.3912 49.9291 18.8404 49.1058C18.9959 49.0029 19.2029 49.0544 19.358 49.1573L24.6377 52.2956C24.8447 52.3985 25.1035 52.3985 25.2588 52.2956L45.9111 40.4114C46.1182 40.3086 46.2217 40.1028 46.2217 39.8456V16.1283C46.2217 15.8711 46.1182 15.6653 45.9111 15.5624L25.2588 3.72955C25.0518 3.62666 24.793 3.62666 24.6377 3.72955L3.98535 15.5626C3.77832 15.6655 3.6748 15.9227 3.6748 16.1285V39.8456C3.6748 40.0513 3.77832 40.3086 3.98535 40.4114L9.62734 43.6525C12.6812 45.1958 14.5961 43.3952 14.5961 41.5947V18.1861C14.5961 17.8775 14.8551 17.5688 15.2174 17.5688H17.8572C18.1678 17.5688 18.4783 17.826 18.4783 18.1861V41.5945C18.4783 45.6588 16.2525 48.0253 12.3705 48.0253C11.1801 48.0253 10.2484 48.0253 7.60879 46.7392L2.17383 43.6525C0.828125 42.8806 0 41.4401 0 39.8968V16.18C0 14.6366 0.828125 13.1962 2.17383 12.4243L22.8262 0.54017C24.1201 -0.180057 25.8799 -0.180057 27.1738 0.54017L47.8262 12.4243C49.1719 13.196 50 14.6364 50 16.18V39.897C50 41.4403 49.1719 42.8808 47.8262 43.6525L27.1738 55.537C26.501 55.8457 25.7246 56 25 56V55.9998ZM31.3664 39.691C22.3084 39.691 20.4451 35.5754 20.4451 32.077C20.4451 31.7683 20.7039 31.4597 21.0662 31.4597H23.7576C24.0682 31.4597 24.3271 31.6654 24.3271 31.9741C24.7412 34.7007 25.9316 36.0384 31.4182 36.0384C35.766 36.0384 37.6295 35.061 37.6295 32.746C37.6295 31.4082 37.1119 30.4308 30.3313 29.7618C24.6895 29.1959 21.1697 27.9612 21.1697 23.4855C21.1697 19.3181 24.6893 16.8488 30.59 16.8488C37.2152 16.8488 40.4762 19.1123 40.8902 24.0512C40.8902 24.2056 40.8385 24.3599 40.735 24.5142C40.6314 24.6171 40.4762 24.72 40.3209 24.72H37.6295C37.3705 24.72 37.1119 24.5142 37.06 24.257C36.4389 21.4275 34.8344 20.5015 30.59 20.5015C25.8283 20.5015 25.2588 22.1478 25.2588 23.3824C25.2588 24.8745 25.9316 25.3373 32.3498 26.1605C38.7164 26.9836 41.7184 28.167 41.7184 32.5914C41.6666 37.1188 37.94 39.691 31.3664 39.691Z" fill="#539E43"/>
</svg>
