<svg width="56" height="56" viewBox="0 0 56 56" fill="none" xmlns="http://www.w3.org/2000/svg">
<mask id="mask0_728_4" style="mask-type:luminance" maskUnits="userSpaceOnUse" x="0" y="0" width="56" height="56">
<path d="M56 0H0V56H56V0Z" fill="white"/>
</mask>
<g mask="url(#mask0_728_4)">
<path d="M9.91815 20.5625H53.5238V52.7931H9.91815V20.5625Z" fill="white"/>
<path d="M0.65625 27.9606V55.3043H55.3438V0.616821H0.65625V27.9606ZM44.7256 25.7731C46.0354 26.077 47.2259 26.7621 48.1469 27.7418C48.6538 28.2697 49.0946 28.8574 49.4594 29.4918C49.4594 29.5618 47.0969 31.1587 45.6575 32.0512C45.605 32.0862 45.395 31.8587 45.1631 31.5131C44.9004 31.0597 44.527 30.6802 44.0779 30.4102C43.6288 30.1401 43.1187 29.9882 42.595 29.9687C40.9369 29.8549 39.8694 30.7256 39.8781 32.1562C39.8648 32.5123 39.9464 32.8656 40.1144 33.1799C40.4775 33.9368 41.1556 34.3874 43.2819 35.3062C47.1975 36.9906 48.8731 38.1018 49.9144 39.6812C51.0781 41.4312 51.3363 44.2574 50.5488 46.3487C49.6738 48.6237 47.53 50.1681 44.4981 50.6799C43.1134 50.8386 41.7142 50.8239 40.3331 50.6362C38.2163 50.2873 36.2665 49.271 34.7681 47.7356C34.265 47.1799 33.285 45.7318 33.3463 45.6268C33.5056 45.5078 33.6738 45.401 33.8494 45.3074L35.875 44.1874L37.4456 43.2774L37.7738 43.7631C38.3277 44.5551 39.0324 45.23 39.8475 45.7493C41.5975 46.6681 43.9862 46.5412 45.1675 45.4781C45.5641 45.0885 45.8115 44.5722 45.8667 44.019C45.9218 43.4658 45.7812 42.9108 45.4694 42.4506C45.0319 41.8424 44.1569 41.3306 41.7113 40.2631C38.8894 39.0468 37.6731 38.2943 36.5619 37.0956C35.8684 36.3044 35.3562 35.3711 35.0612 34.3612C34.8414 33.2073 34.8089 32.0255 34.965 30.8612C35.5469 28.1356 37.59 26.2324 40.5737 25.6681C41.9556 25.4974 43.3552 25.5357 44.7256 25.7818V25.7731ZM31.8894 28.0656V30.3056H24.7887V50.5312H19.7531V30.3012H12.635V28.1137C12.6127 27.3593 12.6302 26.6043 12.6875 25.8518C12.7225 25.8124 17.0625 25.8124 22.3125 25.8124H31.8631L31.8894 28.0656Z" fill="#007ACC"/>
</g>
</svg>
